<svg width="27" height="37" viewBox="0 0 27 37" fill="none" xmlns="http://www.w3.org/2000/svg">
    <path
        d="M5.49048 8.46075C5.49048 4.21949 8.99999 0.78125 13.3292 0.78125C17.6583 0.78125 21.1679 4.21949 21.1679 8.46075V16.9082C21.1679 21.1494 17.6583 24.5877 13.3292 24.5877C8.99999 24.5877 5.49048 21.1494 5.49048 16.9082V8.46075Z"
        fill="white" />
    <path
        d="M13.3374 27.5965C13.3343 27.5965 13.3312 27.5965 13.3281 27.5965C13.325 27.5965 13.3219 27.5965 13.3188 27.5965C8.76687 27.5922 4.86687 24.8258 3.25547 20.8991C2.9339 20.1155 2.02918 19.7374 1.23474 20.0546C0.440312 20.3718 0.0569775 21.2642 0.378565 22.0478C2.26391 26.6422 6.59091 30.0081 11.7762 30.5739V35.2503C11.7762 36.0958 12.471 36.7811 13.3281 36.7811C14.1852 36.7811 14.8799 36.0958 14.8799 35.2503V30.5742C20.0663 30.009 24.3944 26.6429 26.28 22.0478C26.6016 21.2642 26.2183 20.3718 25.4239 20.0546C24.6293 19.7374 23.7246 20.1155 23.4031 20.8991C21.7915 24.8266 17.8903 27.5933 13.3374 27.5965Z"
        fill="white" />
</svg>
    