<svg width="12" height="12" viewBox="0 0 12 12" fill="none" xmlns="http://www.w3.org/2000/svg">
    <path
        d="M11.7998 6.32335C11.1553 4.19641 9.10951 2.74491 6.65742 2.7018V0.215569C6.65742 0.100599 6.55934 0 6.44724 0C6.40521 0 6.36317 0.0143713 6.32114 0.0431138L0.0858231 4.67066C-0.0122605 4.74252 -0.0262724 4.87186 0.0437873 4.97246C0.0577993 4.98683 0.0718112 5.0012 0.0858231 5.01557L6.32114 9.61437C6.41922 9.68623 6.54533 9.65749 6.61539 9.57126C6.64341 9.52814 6.65742 9.48503 6.65742 9.44192V6.97006C8.17071 6.97006 9.4458 7.70299 9.89418 8.80958C10.2725 9.75808 9.96424 10.7784 9.06748 11.6263C8.98341 11.7126 8.96939 11.8419 9.05347 11.9281C9.0955 11.9713 9.15155 12 9.2076 12H9.37574C9.41778 12 9.45981 11.9856 9.48783 11.9569C11.5476 10.5629 12.4303 8.39281 11.7998 6.32335Z"
        fill="#4B1475" />
</svg>
    