<svg xmlns="http://www.w3.org/2000/svg" width="125" height="26" fill="none">
    <g filter="url(#a)">
        <path fill="#64300C"
            d="M123.809 8.732a6 6 0 0 1 0 5.727l-2.987 5.5a6 6 0 0 1-5.273 3.136l-106.37.001a6 6 0 0 1-5.273-3.136l-2.987-5.5a6 6 0 0 1 0-5.727l2.987-5.5A6 6 0 0 1 9.178.097H115.55a6 6 0 0 1 5.273 3.136l2.987 5.5Z" />
        <path stroke="#fff" stroke-opacity=".06" stroke-width="2"
            d="M122.93 9.21a5.001 5.001 0 0 1 0 4.772l-2.987 5.5a5 5 0 0 1-4.394 2.613l-106.37.001a5 5 0 0 1-4.394-2.613l-2.987-5.5a5 5 0 0 1 0-4.773l2.987-5.5a5 5 0 0 1 4.394-2.613h106.37a5 5 0 0 1 4.394 2.613l2.987 5.5Z" />
    </g>
    <defs>
        <filter id="a" width="124.344" height="25" x=".192" y=".096"
            color-interpolation-filters="sRGB" filterUnits="userSpaceOnUse">
            <feFlood flood-opacity="0" result="BackgroundImageFix" />
            <feColorMatrix in="SourceAlpha" result="hardAlpha"
                values="0 0 0 0 0 0 0 0 0 0 0 0 0 0 0 0 0 0 127 0" />
            <feOffset dy="2" />
            <feComposite in2="hardAlpha" operator="out" />
            <feColorMatrix values="0 0 0 0 0.356863 0 0 0 0 0.0901961 0 0 0 0 0 0 0 0 1 0" />
            <feBlend in2="BackgroundImageFix" result="effect1_dropShadow_567_373" />
            <feBlend in="SourceGraphic" in2="effect1_dropShadow_567_373" result="shape" />
        </filter>
    </defs>
</svg>