<svg width="21" height="21" viewBox="0 0 21 21" fill="none" xmlns="http://www.w3.org/2000/svg">
    <path
        d="M19.0723 20.9038C18.6292 20.9038 18.1863 20.7346 17.8481 20.3965L1.06643 3.61411C0.390128 2.9378 0.390128 1.8411 1.06643 1.16543C1.74274 0.489127 2.83849 0.489127 3.51511 1.16543L20.2968 17.9478C20.9731 18.6241 20.9731 19.7208 20.2968 20.3965C19.9584 20.7346 19.5152 20.9038 19.0723 20.9038Z"
        fill="#CCCCCC" />
    <path
        d="M2.29061 20.9045C1.84744 20.9045 1.40458 20.7353 1.06643 20.3971C0.390128 19.7214 0.390128 18.6251 1.06643 17.9484L17.8481 1.16641C18.5244 0.490104 19.6202 0.490104 20.2968 1.16641C20.9731 1.84208 20.9731 2.93846 20.2968 3.61509L3.51479 20.3971C3.17664 20.7353 2.73379 20.9045 2.29061 20.9045Z"
        fill="#CCCCCC" />
</svg>
    