<svg width="34" height="36" viewBox="0 0 34 36" fill="none" xmlns="http://www.w3.org/2000/svg">
    <path
        d="M33.3561 16.5673C33.3561 25.2166 26.0962 32.225 17.133 32.225C8.19776 32.225 0.937866 25.2166 0.937866 16.5673C0.937866 7.91807 8.19775 0.909668 17.1609 0.909668C26.0962 0.909668 33.3561 7.91807 33.3561 16.5673Z"
        fill="#FFD500" />
    <path opacity="0.37"
        d="M29.9495 16.5674C29.9495 23.4089 24.2254 28.9433 17.133 28.9433C10.0686 28.9433 4.31653 23.4089 4.31653 16.5674C4.31653 9.72582 10.0686 4.19141 17.133 4.19141C24.2254 4.19141 29.9495 9.72582 29.9495 16.5674Z"
        fill="#FFC000" />
    <path opacity="0.37"
        d="M17.1608 5.19238C10.2639 5.19238 4.6235 10.4765 4.37219 17.0677C4.65142 23.6868 10.2639 28.9431 17.1608 28.9431C24.0577 28.9431 29.698 23.659 29.9493 17.0677C29.6701 10.4487 24.0577 5.19238 17.1608 5.19238Z"
        fill="#FFC000" />
    <path opacity="0.6"
        d="M17.161 31.6686C8.30947 31.6686 1.10543 24.7993 0.96582 16.2891C0.96582 16.3725 0.96582 16.4837 0.96582 16.5672C0.96582 25.2164 8.22571 32.2248 17.1889 32.2248C26.152 32.2248 33.4119 25.2164 33.4119 16.5672C33.4119 16.4837 33.4119 16.3725 33.4119 16.2891C33.1886 24.8271 26.0124 31.6686 17.161 31.6686Z"
        fill="#FFD551" />
    <path opacity="0.6"
        d="M17.1609 4.19135C24.1136 4.19135 29.754 9.53109 29.9773 16.2058C29.9773 16.0945 29.9773 15.9555 29.9773 15.8442C29.9773 9.00268 24.2532 3.46826 17.1609 3.46826C10.0964 3.46826 4.34436 9.00268 4.34436 15.8442C4.34436 15.9555 4.34436 16.0945 4.34436 16.2058C4.53982 9.53109 10.2081 4.19135 17.1609 4.19135Z"
        fill="#FFD551" />
    <path
        d="M17.161 32.225C8.28155 32.225 1.07751 25.3278 0.96582 16.762V19.3763C0.96582 19.4319 0.96582 19.5153 0.96582 19.5709C0.96582 19.6266 0.96582 19.71 0.96582 19.7656V19.9603C1.1892 28.693 8.3374 35.7014 17.161 35.7014C25.9845 35.7014 33.1327 28.693 33.3561 19.9603V16.5117C33.3561 25.2166 26.0962 32.225 17.161 32.225Z"
        fill="#FFC000" />
    <path
        d="M3.47883 27.692C3.39506 26.8298 3.39506 25.9399 3.53467 25.0777C1.94308 22.6582 0.993712 19.8214 0.937866 16.7622V19.3765C0.937866 19.4321 0.937866 19.5155 0.937866 19.5711C0.937866 19.6268 0.937866 19.7102 0.937866 19.7658V19.9605C1.02163 23.0475 1.971 25.9121 3.53467 28.3316C3.53467 28.137 3.50675 27.9145 3.47883 27.692Z"
        fill="#FFC000" />
    <path
        d="M31.234 24.3262C31.234 25.828 30.8989 27.3576 30.4801 28.8038C32.2392 26.3008 33.2724 23.2694 33.3561 20.0155V16.5669C33.3561 19.3758 32.5743 22.0179 31.234 24.3262Z"
        fill="#FFC000" />
    <path
        d="M1.94308 22.0185C1.32878 20.3777 0.965789 18.5977 0.937866 16.7622V19.3765C0.937866 19.4321 0.937866 19.5155 0.937866 19.5711C0.937866 19.6268 0.937866 19.7102 0.937866 19.7658V19.9605C0.993712 21.8516 1.35671 23.6316 1.99893 25.3002C1.88724 24.2434 1.85931 23.131 1.94308 22.0185Z"
        fill="#FFC000" />
    <path
        d="M32.3508 21.9901C32.2949 23.5197 32.1274 25.0493 31.7644 26.5511C32.7138 24.5765 33.2722 22.3516 33.3281 20.0155V16.5669C33.356 18.4581 32.993 20.2936 32.3508 21.9901Z"
        fill="#FFC000" />
    <path
        d="M17.3563 32.2247C17.3005 32.2247 17.2167 32.2247 17.1609 32.2247C14.3965 32.2247 11.7997 31.5572 9.53799 30.3892C9.62176 31.5294 9.53799 32.6697 9.45422 33.8099C11.7439 35.0336 14.3686 35.7567 17.1609 35.7567C17.2446 35.7567 17.3005 35.7567 17.3843 35.7567C17.2446 34.5608 17.1888 33.3928 17.3563 32.2247Z"
        fill="#FFC000" />
    <path
        d="M12.442 31.5575C11.6601 31.335 10.8783 31.029 10.1523 30.6953C10.1244 31.8356 10.0965 32.9758 10.0127 34.0883C10.7945 34.4776 11.6043 34.7836 12.442 35.0339C12.3582 33.8658 12.3582 32.6977 12.442 31.5575Z"
        fill="#FFD551" />
    <path opacity="0.22"
        d="M8.03007 11.2551C9.87296 9.30828 11.7438 7.44493 13.7263 5.63721C9.11905 6.8609 5.57287 10.5042 4.59558 15.0652C5.74041 13.7859 6.85732 12.5066 8.03007 11.2551Z"
        fill="#FFD500" />
    <path opacity="0.22"
        d="M29.6704 14.9539C29.5587 14.3977 29.3911 13.8693 29.1957 13.3687C28.5534 13.9527 27.9112 14.5367 27.269 15.0929C24.756 17.2344 22.3267 19.4315 19.8695 21.6564C17.4402 23.8813 14.983 26.0505 12.3862 28.0529C12.8609 28.2476 13.3356 28.3867 13.8382 28.5257C18.6409 23.4919 23.9462 18.9309 29.6704 14.9539Z"
        fill="#FFD500" />
    <path opacity="0.22"
        d="M22.941 26.1342C21.9079 26.9964 20.8468 27.8585 19.7858 28.6929C24.1138 27.8029 27.66 24.8271 29.1678 20.8779C27.1294 22.6578 25.0631 24.4099 22.941 26.1342Z"
        fill="#FFD500" />
    <path opacity="0.22"
        d="M15.681 13.7863C18.0824 11.8117 20.5954 9.94837 23.1364 8.14065C23.5273 7.86254 23.9182 7.58443 24.3091 7.30631C23.6669 6.88915 22.9968 6.5276 22.2708 6.22168C21.3214 7.0282 20.3721 7.83473 19.4227 8.66906C18.5292 9.50339 17.6356 10.3655 16.7421 11.1721C12.9726 14.5928 9.20299 18.0136 5.29382 21.2675C5.5172 21.8237 5.79643 22.3521 6.10358 22.8527C8.92377 19.4876 12.2745 16.5674 15.681 13.7863Z"
        fill="#FFD500" />
    <path opacity="0.37"
        d="M26.3196 12.34C26.1242 11.9785 20.7072 15.7886 20.7072 15.7886C20.763 15.7608 19.3111 13.23 19.2273 13.0631C18.8643 12.3678 18.4734 11.7003 18.1104 11.0051C17.8032 10.4488 17.5519 9.55888 16.9097 10.4488C16.7422 10.6713 16.6305 10.9773 16.4909 11.2276C16.1279 11.8672 15.7928 12.5069 15.4298 13.1743C14.9551 14.0365 14.4804 14.8986 14.0337 15.7608C14.0337 15.7608 8.64461 11.9506 8.42123 12.34C8.22577 12.7294 10.683 22.1851 10.683 22.1851C11.1856 23.826 16.3233 24.0207 17.2727 24.0485C17.2727 24.0485 17.3006 24.0485 17.3565 24.0485C17.4123 24.0485 17.4402 24.0485 17.4402 24.0485C18.4175 24.0207 23.5274 23.826 24.03 22.1851C24.03 22.1851 26.5151 12.7015 26.3196 12.34Z"
        fill="#FFC000" />
    <path
        d="M26.3196 12.0895C26.0962 11.7279 20.7072 14.8428 20.7072 14.8428C20.7351 14.815 19.311 12.2842 19.2273 12.1173C18.8643 11.422 18.4734 10.7545 18.1104 10.0593C17.8032 9.50304 17.5519 8.61308 16.9097 9.50304C16.7421 9.72553 16.6305 10.0315 16.4908 10.2818C16.1279 10.9214 15.7928 11.5611 15.4298 12.2285C14.9551 13.1185 14.4804 13.9806 14.0057 14.8428C14.0057 14.8428 8.58874 11.7279 8.39328 12.0895C8.19782 12.451 10.6829 21.2393 10.6829 21.2393C11.1855 22.8802 16.3233 23.0749 17.2727 23.1027C17.2727 23.1027 17.3006 23.1027 17.3564 23.1027C17.4123 23.1027 17.4402 23.1027 17.4402 23.1027C18.4175 23.0749 23.5274 22.8802 24.03 21.2393C24.03 21.2393 26.5151 12.451 26.3196 12.0895Z"
        fill="#FD8D34" />
    <path opacity="0.32"
        d="M12.4699 13.9809C10.8783 13.0631 8.53276 11.8394 8.42107 12.0897C8.30938 12.2566 8.81199 14.2868 9.37044 16.3726C10.4315 15.6217 11.4646 14.8152 12.4699 13.9809Z"
        fill="#FFD500" />
    <path opacity="0.32"
        d="M12.051 22.324C12.6094 21.4619 13.2237 20.6276 13.8659 19.821C15.3458 18.0133 17.0212 16.3447 18.6966 14.7594C19.1154 14.3423 19.5622 13.9529 20.0089 13.5357C19.6459 12.8683 19.255 12.2008 19.2271 12.1174C19.1433 11.9783 19.0875 11.8393 19.0037 11.7002C16.379 14.7594 13.5588 17.624 10.3756 20.0992C10.5711 20.7944 10.6828 21.2394 10.6828 21.2394C10.8224 21.7122 11.3529 22.0737 12.051 22.324Z"
        fill="#FFD500" />
    <path opacity="0.32"
        d="M19.5902 20.8777C20.5116 19.9599 21.4331 19.0421 22.3825 18.1522C23.4435 17.1788 24.5046 16.2332 25.6215 15.3154C26.0403 13.7024 26.3475 12.3118 26.3195 12.0894C26.2358 12.145 26.2079 12.2006 26.1241 12.2562C25.5377 12.9237 24.9793 13.619 24.3929 14.2864C23.3877 15.4823 22.4104 16.6504 21.3214 17.7628C20.2045 18.9031 19.0038 19.9599 17.7752 20.9889C16.9375 21.6842 16.0999 22.3517 15.2343 22.9913C16.1557 23.0748 16.9655 23.1026 17.2726 23.1304C17.2726 23.1304 17.3005 23.1304 17.3564 23.1304C17.4122 23.1304 17.4401 23.1304 17.4401 23.1304C17.5239 23.1304 17.6635 23.1304 17.859 23.1304C18.222 22.2404 18.92 21.5173 19.5902 20.8777Z"
        fill="#FFD500" />
    <path opacity="0.32"
        d="M21.1538 22.7415C22.522 22.4634 23.7785 22.0184 24.0298 21.2397C24.0298 21.2397 24.1695 20.7113 24.3928 19.9048C23.4435 20.9894 22.3824 21.935 21.1538 22.7415Z"
        fill="#FFD500" />
    <path opacity="0.32"
        d="M9.1472 4.55265C10.7388 3.35677 12.3583 2.24432 14.0616 1.1875C7.89068 2.35557 2.94837 6.88878 1.44055 12.7291C3.31137 9.50303 6.1874 6.80535 9.1472 4.55265Z"
        fill="#FFD500" />
    <path opacity="0.32"
        d="M23.2202 4.60867C23.8624 4.08026 24.5046 3.52403 25.1747 2.96781C24.2533 2.46721 23.276 2.05004 22.2708 1.71631C21.3773 2.60626 20.4837 3.52403 19.5902 4.41399C20.5675 4.60867 21.5169 4.88678 22.4104 5.27613C22.6896 5.05364 22.9409 4.83116 23.2202 4.60867Z"
        fill="#FFD500" />
    <path opacity="0.32"
        d="M25.7052 7.33355C26.5708 6.63827 27.4643 5.91518 28.3299 5.2199C28.1624 5.08085 27.9949 4.94179 27.8273 4.80273C26.9897 5.55363 26.1241 6.27672 25.2864 7.02763C25.426 7.11106 25.5656 7.2223 25.7052 7.33355Z"
        fill="#FFD500" />
    <path opacity="0.32"
        d="M32.5184 11.6168C32.2113 10.7546 31.8483 9.92031 31.4295 9.1416C30.6476 10.0872 29.8658 11.0328 29.056 11.9783C29.3073 12.5902 29.5028 13.202 29.6424 13.8417C30.5918 13.063 31.5411 12.3121 32.5184 11.6168Z"
        fill="#FFD500" />
    <path opacity="0.32"
        d="M21.0143 31.7804C26.878 30.3899 31.4853 25.9401 32.9093 20.2666C29.3352 24.5217 25.3981 28.4153 21.0143 31.7804Z"
        fill="#FFD500" />
    <path opacity="0.32"
        d="M11.8836 30.6677C12.4979 29.9447 13.1122 29.2216 13.7265 28.4985C13.0284 28.3038 12.3303 28.0813 11.6881 27.7754C11.4647 27.9423 11.2414 28.0813 10.9901 28.2482C10.2361 28.7488 9.42639 29.305 8.56079 29.8612C9.45432 30.3896 10.3758 30.8346 11.3531 31.1962C11.5485 31.0293 11.716 30.8346 11.8836 30.6677Z"
        fill="#FFD500" />
    <path opacity="0.32"
        d="M5.4334 21.5453C5.01456 20.6553 4.70741 19.7097 4.53988 18.7363C3.64635 19.4594 2.64114 20.3216 1.58008 20.9334C1.971 22.2127 2.52945 23.4364 3.19959 24.5489C3.86974 23.5198 4.62365 22.5186 5.4334 21.5453Z"
        fill="#FFD500" />
    <path opacity="0.6"
        d="M17.6635 11.1161C19.0596 11.9504 19.5064 14.2031 20.1765 15.6493C20.5674 15.5659 20.9863 15.4824 21.3772 15.4546C21.6006 15.2878 21.796 15.1209 21.9915 14.954C22.5778 14.509 23.1642 14.0084 23.9461 13.9806C24.7 13.9806 25.2863 14.3422 25.7331 14.8706C26.0961 13.3966 26.3753 12.2007 26.2916 12.0617C26.0961 11.7279 20.707 14.8428 20.707 14.8428C20.735 14.815 19.3109 12.2842 19.2271 12.1173C18.8641 11.422 18.4732 10.7545 18.1102 10.0593C17.8031 9.50304 17.5518 8.61308 16.9095 9.50304C16.742 9.72553 16.6303 10.0315 16.4907 10.2818C16.3511 10.5599 16.1836 10.838 16.0439 11.1161C16.5186 10.838 17.0771 10.7824 17.6635 11.1161Z"
        fill="#FD8D34" />
    <path opacity="0.6"
        d="M22.5778 22.102C20.5116 22.7973 17.9985 22.7694 15.8485 22.5191C13.3355 22.2132 11.7439 21.1286 10.7945 18.7925C9.92889 16.7066 8.8399 14.4539 8.8399 12.1456C8.5886 12.0622 8.44899 12.0344 8.42107 12.09C8.19768 12.4515 10.6828 21.2398 10.6828 21.2398C11.1854 22.8807 16.3232 23.0754 17.2725 23.1032C17.2725 23.1032 17.3005 23.1032 17.3563 23.1032C17.4122 23.1032 17.4401 23.1032 17.4401 23.1032C18.3615 23.0754 22.9688 22.9085 23.9181 21.4901C23.4993 21.7404 23.0525 21.9351 22.5778 22.102Z"
        fill="#FD8D34" />
</svg>
    