<svg width="115" height="54" viewBox="0 0 115 54" fill="none" xmlns="http://www.w3.org/2000/svg">
    <path fill-rule="evenodd" clip-rule="evenodd"
        d="M114.341 12.3213C114.341 5.69387 108.968 0.321289 102.341 0.321289L12.34 0.321285C5.71255 0.321284 0.339966 5.69387 0.339965 12.3213L0.339964 33.0098C0.339964 39.6372 5.71255 45.0098 12.34 45.0098L77.1033 45.0098C78.8897 45.0098 80.5403 45.9628 81.4335 47.5098L84.6089 53.0098C85.3787 54.3431 87.3032 54.3431 88.073 53.0098L91.2484 47.5098C92.1416 45.9628 93.7922 45.0098 95.5786 45.0098L102.341 45.0098C108.968 45.0098 114.341 39.6372 114.341 33.0098L114.341 12.3213Z"
    />
</svg>
    