<svg width="32" height="31" viewBox="0 0 32 31" fill="none" xmlns="http://www.w3.org/2000/svg">
    <path
        d="M1.96112 11.3803C2.56408 11.2908 3.13952 11.0634 3.64458 10.715C4.14965 10.3667 4.57132 9.90643 4.8782 9.36846C5.18508 8.83048 5.36927 8.22868 5.41704 7.60787C5.46481 6.98705 5.37494 6.36322 5.15411 5.78282C5.01373 5.40339 4.99306 4.98856 5.09498 4.59651C5.1969 4.20446 5.41631 3.85483 5.72245 3.59665C7.07401 2.43667 8.61243 1.52543 10.2691 0.903538C10.6464 0.760309 11.0582 0.742414 11.446 0.852401C11.8338 0.962388 12.1777 1.19465 12.4288 1.51609C12.8067 2.00999 13.2897 2.40945 13.8411 2.68417C14.3926 2.9589 14.998 3.10168 15.6114 3.10168C16.2249 3.10168 16.8303 2.9589 17.3818 2.68417C17.9332 2.40945 18.4162 2.00999 18.7941 1.51609C19.0452 1.19465 19.3891 0.962388 19.7769 0.852401C20.1647 0.742414 20.5765 0.760309 20.9538 0.903538C22.4834 1.47769 23.9137 2.2977 25.1904 3.33262C25.5123 3.59302 25.7441 3.9519 25.8519 4.35669C25.9598 4.76149 25.938 5.19094 25.7898 5.58216C25.5513 6.17791 25.4528 6.82248 25.5021 7.46417C25.5514 8.10586 25.7472 8.72681 26.0737 9.2772C26.4003 9.8276 26.8484 10.2921 27.3823 10.6335C27.9162 10.9749 28.521 11.1836 29.1481 11.243C29.5552 11.2875 29.9376 11.4644 30.239 11.7477C30.5403 12.031 30.7447 12.4057 30.8221 12.8166C31.0145 13.79 31.1114 14.7807 31.1114 15.7737C31.1128 16.6052 31.0472 17.4353 30.9151 18.2556C30.8494 18.6797 30.6488 19.0699 30.3443 19.3658C30.0398 19.6617 29.6485 19.8468 29.2308 19.8926C28.5899 19.9541 27.9728 20.1716 27.431 20.5268C26.8892 20.8821 26.4386 21.3648 26.1169 21.9346C25.7951 22.5044 25.6116 23.1447 25.5817 23.8019C25.5517 24.459 25.6762 25.114 25.9448 25.7119C26.1205 26.1008 26.1641 26.5385 26.0686 26.9557C25.9731 27.3728 25.7441 27.7453 25.4178 28.0142C24.0743 29.1531 22.5507 30.0496 20.9124 30.6651C20.7029 30.7392 20.4831 30.7785 20.2614 30.7812C19.9575 30.7806 19.6581 30.7054 19.3884 30.5621C19.1187 30.4188 18.8866 30.2114 18.7114 29.9575C18.3431 29.409 17.8494 28.9608 17.2732 28.6516C16.697 28.3424 16.0556 28.1816 15.4048 28.1832C14.7742 28.184 14.1525 28.3353 13.5892 28.625C13.0259 28.9147 12.5365 29.3348 12.1601 29.8519C11.9097 30.1959 11.5551 30.4456 11.1514 30.5621C10.7476 30.6786 10.3176 30.6554 9.92811 30.4961C8.4301 29.8799 7.0355 29.0283 5.79478 27.972C5.48311 27.7086 5.26118 27.351 5.16092 26.9506C5.06066 26.5502 5.08721 26.1276 5.23678 25.7435C5.47982 25.1555 5.58579 24.5177 5.54633 23.8806C5.50687 23.2435 5.32305 22.6245 5.00939 22.0724C4.69573 21.5204 4.26081 21.0504 3.73897 20.6996C3.21713 20.3488 2.62264 20.1268 2.00245 20.051C1.60029 19.9942 1.22628 19.808 0.934597 19.5194C0.642914 19.2307 0.448709 18.8547 0.380117 18.4457C0.214161 17.5648 0.12426 16.6707 0.11145 15.7737C0.111254 14.8276 0.197741 13.8835 0.369783 12.9539C0.439554 12.5539 0.630863 12.1866 0.916533 11.9041C1.2022 11.6217 1.56771 11.4383 1.96112 11.3803ZM10.4448 15.7737C10.4448 16.8182 10.7478 17.8391 11.3155 18.7075C11.8832 19.5759 12.6902 20.2527 13.6342 20.6524C14.5783 21.0521 15.6172 21.1566 16.6194 20.9529C17.6216 20.7491 18.5423 20.2462 19.2648 19.5077C19.9874 18.7692 20.4795 17.8283 20.6788 16.8039C20.8782 15.7796 20.7759 14.7178 20.3848 13.7529C19.9938 12.788 19.3315 11.9633 18.4819 11.3831C17.6322 10.8028 16.6333 10.4931 15.6114 10.4931C14.2412 10.4931 12.927 11.0495 11.9581 12.0398C10.9891 13.0301 10.4448 14.3732 10.4448 15.7737Z"
        fill="white" />
</svg>
    