<svg width="70" height="85" viewBox="0 0 70 85" fill="none" xmlns="http://www.w3.org/2000/svg">
    <path
        d="M40.2196 78.4492C40.4064 78.4493 40.5902 78.4033 40.755 78.3154C40.9198 78.2275 41.0603 78.1004 41.1642 77.9452C41.2681 77.7901 41.3322 77.6117 41.3508 77.4259C41.3694 77.2401 41.3419 77.0526 41.2707 76.8799L37.8328 68.5245C37.776 68.3865 37.6926 68.261 37.5873 68.1552C37.482 68.0494 37.3569 67.9653 37.2192 67.9079C37.0814 67.8504 36.9337 67.8207 36.7844 67.8203C36.6352 67.82 36.4873 67.849 36.3493 67.9058C36.2113 67.9625 36.0858 68.046 35.98 68.1512C35.8742 68.2565 35.7901 68.3816 35.7327 68.5194C35.6752 68.6571 35.6455 68.8048 35.6451 68.9541C35.6447 69.1033 35.6738 69.2512 35.7306 69.3892L39.1685 77.7447C39.2541 77.9531 39.3998 78.1313 39.5869 78.2568C39.7741 78.3822 39.9943 78.4492 40.2196 78.4492Z"
        fill="#001B2D" />
    <path
        d="M23.1656 78.4491C23.3867 78.4491 23.603 78.3846 23.7879 78.2635C23.9729 78.1424 24.1186 77.97 24.207 77.7673L27.862 69.4119C27.9272 69.2744 27.964 69.1252 27.9704 68.9732C27.9768 68.8212 27.9526 68.6694 27.8993 68.5269C27.8459 68.3844 27.7645 68.2541 27.6598 68.1436C27.5551 68.0332 27.4293 67.9449 27.2899 67.884C27.1504 67.8231 27.0001 67.7909 26.848 67.7891C26.6958 67.7874 26.5449 67.8163 26.4041 67.874C26.2633 67.9317 26.1355 68.0171 26.0284 68.1251C25.9212 68.2332 25.8368 68.3616 25.7803 68.5029L22.1235 76.8566C22.0481 77.0295 22.0169 77.2184 22.0327 77.4064C22.0485 77.5943 22.1109 77.7754 22.2141 77.9333C22.3174 78.0911 22.4584 78.2208 22.6243 78.3105C22.7902 78.4003 22.9758 78.4473 23.1644 78.4474L23.1656 78.4491Z"
        fill="#001B2D" />
    <path
        d="M54.0546 74.9312C54.2721 74.9312 54.4893 74.9121 54.7035 74.8744C55.5472 74.7272 56.1904 74.2 56.5131 73.3892C56.7267 72.854 56.7892 72.2262 56.7403 71.5836C58.0085 72.4705 59.1602 72.9182 60.1823 72.9182C61.2993 72.9182 62.2311 72.4006 62.8771 71.4211C63.3214 70.7473 63.4578 69.8683 63.2612 68.9456C62.9203 67.3496 61.6606 65.7849 59.7101 64.5401C56.2534 62.3333 52.7478 58.6988 52.7126 58.6624L52.3717 58.3062L51.8928 58.4255C51.7507 58.4613 50.4695 58.8095 49.3832 60.0817C48.398 61.235 47.402 63.3941 48.2508 67.1269C48.8644 69.828 49.7059 71.8552 50.7508 73.1495C51.9365 74.6187 53.2012 74.9272 54.0541 74.9272L54.0546 74.9312Z"
        fill="#E64238" />
    <path
        d="M52.1 59.2534C52.1 59.2534 47.5916 60.3772 49.083 66.9418C50.3602 72.5666 52.371 74.0802 54.0567 74.0802C54.2251 74.0799 54.3931 74.0651 54.559 74.0359C56.5964 73.6802 55.9879 70.3292 54.9141 68.8855C57.172 71.1644 58.9094 72.0672 60.1844 72.0672C61.0559 72.0672 61.711 71.6456 62.1673 70.953C62.9905 69.7031 62.3781 67.2543 59.2537 65.2595C55.6743 62.9726 52.1 59.254 52.1 59.254M52.646 57.3614L53.3278 58.0733C53.3681 58.1154 56.8095 61.6783 60.169 63.8231C62.3133 65.1918 63.7076 66.948 64.0956 68.7662C64.3399 69.9144 64.1598 71.0229 63.5888 71.8911C62.7888 73.1035 61.5792 73.7711 60.1798 73.7711C59.3321 73.7711 58.4424 73.5325 57.4987 73.049C57.4522 73.2729 57.3866 73.4925 57.3026 73.7052C57.1117 74.2004 56.8034 74.6418 56.4044 74.9916C55.9621 75.3701 55.4244 75.6199 54.8499 75.7137C54.5872 75.7597 54.3211 75.7831 54.0544 75.7836C53.0158 75.7836 51.4852 75.4199 50.0881 73.6887C48.9432 72.2683 48.07 70.1871 47.4177 67.3179C47.0234 65.5816 46.9677 64.0021 47.2535 62.6243C47.5007 61.4312 47.9984 60.388 48.7307 59.5278C49.9898 58.054 51.5147 57.6404 51.6852 57.5961L52.6431 57.3574L52.646 57.3614Z"
        fill="#001B2D" />
    <path
        d="M6.22203 62.8496C7.35635 62.8424 8.47879 62.6181 9.52875 62.1888C11.2628 61.4746 13.0809 60.5883 14.6331 58.9502C16.5552 56.9242 17.6115 54.1521 17.7637 50.717C17.8774 48.1233 17.3268 46.1716 16.124 44.9132C14.8843 43.6177 13.2832 43.424 12.4389 43.424C12.1629 43.4217 11.8873 43.4432 11.6151 43.4882L11.431 43.5229L11.2781 43.6319C8.6356 45.5171 6.34646 47.7432 4.65844 50.0704C2.82043 52.605 1.73523 55.1589 1.43297 57.6605C1.24661 59.2048 1.56536 60.4542 2.38124 61.3746C3.23633 62.3393 4.56697 62.8496 6.22203 62.8496Z"
        fill="#FE9132" />
    <path
        d="M12.439 44.2755C12.2161 44.2731 11.9933 44.2897 11.7731 44.3249C6.71078 47.9356 2.86771 52.8894 2.2791 57.762C1.90183 60.8869 3.962 61.9959 6.22216 61.9959C7.24493 61.9887 8.25694 61.7865 9.20389 61.3999C12.0828 60.2142 16.5855 58.0648 16.9122 50.6787C17.1679 44.9067 13.8856 44.2755 12.439 44.2755ZM12.439 42.571C14.1316 42.571 15.6588 43.1959 16.74 44.3237C18.1099 45.7555 18.7405 47.9185 18.615 50.7537C18.5297 52.6797 18.1724 54.4269 17.5531 55.9467C17.017 57.2768 16.2365 58.4948 15.252 59.5375C13.5896 61.2897 11.6726 62.2261 9.85444 62.976C8.70143 63.4472 7.46883 63.6931 6.2233 63.7004C5.42379 63.7089 4.62851 63.5833 3.87053 63.3289C3.0126 63.03 2.29784 62.563 1.74502 61.9391C1.06777 61.1755 0.317791 59.7954 0.588238 57.5574C0.751301 56.2058 1.13766 54.8195 1.73593 53.4371C2.33768 52.0705 3.08678 50.7737 3.96995 49.5696C5.71138 47.1686 8.06756 44.8749 10.7845 42.9374L11.0896 42.7198L11.4578 42.6499C11.7823 42.5949 12.111 42.5685 12.4402 42.571H12.439Z"
        fill="#001B2D" />
    <path
        d="M43.0787 20.7744C45.3224 20.7744 48.0615 20.0767 50.2273 18.9562C51.5472 18.2744 53.4659 17.2 54.8715 15.7961C57.1635 13.5098 56.9379 11.4656 56.3453 10.1531C55.6635 8.64234 54.0619 7.81055 51.8358 7.81055C50.2268 7.81055 48.345 8.25201 46.5377 9.05426C44.6451 9.89401 42.9736 11.0508 41.7032 12.4002C39.9288 14.2836 39.0595 16.4217 39.1885 18.583C39.2282 19.2426 39.6867 20.7766 43.0787 20.7766V20.7744Z"
        fill="#FE9132" />
    <path
        d="M51.8356 8.66055C47.0426 8.66055 39.7036 12.9218 40.0394 18.5296C40.0962 19.4659 41.3428 19.9221 43.0785 19.9221C45.0449 19.9221 47.6386 19.3358 49.8351 18.1972C52.4026 16.8683 57.1792 14.0746 55.5685 10.5014C54.9929 9.22701 53.5839 8.66055 51.8356 8.66055ZM51.8356 6.95605C52.9901 6.95605 54.0094 7.15889 54.8645 7.55945C55.898 8.04295 56.6781 8.81793 57.1218 9.80029C57.6724 11.0196 57.7468 12.3207 57.3315 13.5627C57.0088 14.5388 56.3838 15.4905 55.4747 16.3972C53.9833 17.8847 51.9902 19.0006 50.6209 19.7108C49.401 20.3349 48.1126 20.815 46.7818 21.1414C45.4977 21.459 44.2177 21.6266 43.0808 21.6266C41.9439 21.6266 41.0019 21.4636 40.2564 21.142C39.1042 20.6454 38.4059 19.7301 38.34 18.6318C38.1963 16.2302 39.1451 13.8723 41.0848 11.8139C43.7785 8.95372 48.2005 6.95662 51.8379 6.95662L51.8356 6.95605Z"
        fill="#001B2D" />
    <path
        d="M33.931 74.6399C41.4184 74.6308 48.6355 71.841 54.1823 66.8117C59.7291 61.7825 63.2102 54.8723 63.9504 47.4216C64.6905 39.9709 62.637 32.5109 58.1881 26.4886C53.7391 20.4664 47.212 16.3112 39.8728 14.8291C32.5336 13.3471 24.9055 14.6438 18.4683 18.4677C12.031 22.2917 7.24353 28.3702 5.03446 35.5243C2.82539 42.6783 3.35223 50.3979 6.51278 57.1855C9.67333 63.9731 15.2423 69.3448 22.1394 72.2587C25.8696 73.8379 29.8803 74.6478 33.931 74.6399Z"
        fill="#FE9132" />
    <path
        d="M33.9312 14.9067C17.6715 14.9067 4.49061 28.0881 4.49061 44.3473C4.49061 60.6065 17.672 73.7879 33.9312 73.7879C50.1904 73.7879 63.3724 60.607 63.3724 44.3473C63.3724 28.0876 50.1909 14.9067 33.9312 14.9067ZM33.9312 13.2022C40.1376 13.1925 46.2041 15.0459 51.3455 18.5225C56.3523 21.9022 60.2715 26.6616 62.6281 32.2238C64.6481 36.9968 65.4435 42.199 64.9419 47.3576C64.4403 52.5161 62.6577 57.4676 59.756 61.7621C56.3757 66.7683 51.6165 70.6872 46.0547 73.0442C41.2817 75.0644 36.0795 75.8599 30.9209 75.3583C25.7623 74.8568 20.8108 73.074 16.5164 70.1721C11.5092 66.7923 7.59011 62.0325 5.23434 56.4697C3.21464 51.6966 2.41941 46.4945 2.92088 41.336C3.42235 36.1775 5.20464 31.226 8.10585 26.9313C11.4863 21.9255 16.2455 18.0071 21.8071 15.6504C25.6427 14.0271 29.7663 13.1944 33.9312 13.2022Z"
        fill="#001B2D" />
    <path
        d="M9.30079 60.4805C10.7066 57.7768 12.7238 55.4384 15.1921 53.6512C24.5821 46.8491 38.1601 49.5717 45.5196 59.7305C47.5771 62.5568 48.9965 65.7961 49.6797 69.2246C44.9712 72.2136 39.5073 73.7968 33.9302 73.7881C23.6276 73.7881 14.5609 68.495 9.30079 60.4805Z"
        fill="white" />
    <path
        d="M42.1998 46.8926C37.1886 46.8926 33.1263 42.7621 33.1263 37.6668C33.1263 32.5715 37.1886 28.4409 42.1998 28.4409C47.2111 28.4409 51.2734 32.5715 51.2734 37.6668C51.2734 42.7621 47.2111 46.8926 42.1998 46.8926Z"
        fill="white" />
    <path
        d="M12.7669 43.0909C9.39978 41.6596 8.14616 37.027 9.96691 32.7438C11.7877 28.4607 15.9933 26.1488 19.3605 27.5802C22.7276 29.0115 23.9813 33.6441 22.1605 37.9273C20.3398 42.2104 16.1341 44.5223 12.7669 43.0909Z"
        fill="white" />
    <path
        d="M45.7312 51.4616C42.8792 51.4616 40.5672 50.2439 40.5672 48.7418C40.5672 47.2397 42.8792 46.022 45.7312 46.022C48.5832 46.022 50.8953 47.2397 50.8953 48.7418C50.8953 50.2439 48.5832 51.4616 45.7312 51.4616Z"
        fill="#E94B41" />
    <path
        d="M14.5763 40.6854C12.0624 39.6168 10.9812 36.5001 12.1613 33.7241C13.3414 30.948 16.3359 29.5639 18.8497 30.6325C21.3635 31.7011 22.4447 34.8178 21.2647 37.5938C20.0846 40.3699 17.0901 41.754 14.5763 40.6854Z"
        fill="#012236" />
    <path
        d="M11.6194 47.5149C9.16429 47.5149 7.17406 46.3585 7.17406 44.932C7.17406 43.5055 9.16429 42.3491 11.6194 42.3491C14.0745 42.3491 16.0647 43.5055 16.0647 44.932C16.0647 46.3585 14.0745 47.5149 11.6194 47.5149Z"
        fill="#E94B41" />
    <path
        d="M40.8927 43.9215C37.582 43.9215 34.898 41.2376 34.898 37.9268C34.898 34.6161 37.582 31.9321 40.8927 31.9321C44.2035 31.9321 46.8875 34.6161 46.8875 37.9268C46.8875 41.2376 44.2035 43.9215 40.8927 43.9215Z"
        fill="#012236" />
    <path
        d="M40.2992 37.7916C39.0849 37.7916 38.1005 36.8072 38.1005 35.5928C38.1005 34.3785 39.0849 33.394 40.2992 33.394C41.5136 33.394 42.498 34.3785 42.498 35.5928C42.498 36.8072 41.5136 37.7916 40.2992 37.7916Z"
        fill="white" />
    <path
        d="M16.8402 35.6858C15.8414 35.6858 15.0317 34.8761 15.0317 33.8773C15.0317 32.8785 15.8414 32.0688 16.8402 32.0688C17.839 32.0688 18.6487 32.8785 18.6487 33.8773C18.6487 34.8761 17.839 35.6858 16.8402 35.6858Z"
        fill="white" />
    <path
        d="M16.2685 39.5567C15.5854 39.5567 15.0316 39.0248 15.0316 38.3687C15.0316 37.7126 15.5854 37.1807 16.2685 37.1807C16.9516 37.1807 17.5054 37.7126 17.5054 38.3687C17.5054 39.0248 16.9516 39.5567 16.2685 39.5567Z"
        fill="white" />
    <path
        d="M39.8702 41.729C39.1341 41.729 38.5373 41.1623 38.5373 40.4631C38.5373 39.764 39.1341 39.1973 39.8702 39.1973C40.6064 39.1973 41.2031 39.764 41.2031 40.4631C41.2031 41.1623 40.6064 41.729 39.8702 41.729Z"
        fill="white" />
    <path
        d="M58.3362 47.3218C63.5133 50.6137 67.5143 55.2295 68.2586 59.8686C68.9535 64.1912 64.3707 64.6048 61.4548 63.5616C58.539 62.5185 53.9698 60.6021 53.4039 53.5523"
        fill="#FE9132" />
    <path
        d="M58.3361 47.3218C58.9855 47.8479 59.6235 48.3797 60.2406 48.9303C60.8576 49.4808 61.4559 50.0461 62.0286 50.6347C62.6013 51.2234 63.1496 51.8279 63.6672 52.4529L63.8598 52.6881L64.0478 52.9267C64.1757 53.0841 64.2956 53.2466 64.4177 53.4074C64.5399 53.5682 64.6546 53.7341 64.7734 53.8966L64.9438 54.1454C65.0007 54.2278 65.0575 54.3102 65.1143 54.3949C65.2245 54.5653 65.3353 54.7289 65.4387 54.9C65.491 54.9852 65.545 55.0704 65.5955 55.1556L65.7455 55.4141C65.8466 55.5846 65.9393 55.7619 66.0364 55.9346L66.1728 56.1988C66.2188 56.2868 66.2637 56.3749 66.3046 56.4647L66.4324 56.7317C66.4733 56.8215 66.5114 56.9118 66.5512 57.0022C66.6324 57.1811 66.7017 57.3641 66.7784 57.5453C66.9165 57.9107 67.0489 58.2777 67.1489 58.6516L67.1892 58.7913L67.2239 58.9317L67.2926 59.2067C67.3307 59.3947 67.3767 59.5816 67.4063 59.7708L67.4301 59.9123C67.4381 59.9595 67.4472 60.0072 67.4506 60.0504L67.4807 60.3157C67.4933 60.4859 67.4957 60.6566 67.4881 60.8271C67.4785 61.1391 67.4133 61.447 67.2955 61.7361C67.1834 62.0035 67.0102 62.2409 66.7898 62.4293C66.5508 62.6335 66.278 62.7942 65.9836 62.9043C65.6581 63.0269 65.3192 63.1103 64.9739 63.1526C64.2603 63.2508 63.4967 63.2094 62.7581 63.0798L62.4814 63.023C62.3899 63.0009 62.2979 62.9815 62.207 62.9582C62.1161 62.9349 62.0257 62.9105 61.9365 62.8832L61.8036 62.8418C61.7593 62.8281 61.715 62.8145 61.6655 62.7975C61.2786 62.6656 60.8979 62.5361 60.5246 62.3941C60.1514 62.252 59.786 62.0997 59.4298 61.9321C59.0736 61.7645 58.7247 61.585 58.3884 61.3867C58.052 61.1891 57.7271 60.9726 57.4151 60.7384C57.2577 60.6248 57.11 60.4975 56.9606 60.3737C56.8111 60.2498 56.6662 60.1174 56.5287 59.9759C56.3913 59.8345 56.2555 59.697 56.1197 59.5555L55.9276 59.3322C55.8958 59.2947 55.8634 59.2584 55.8322 59.2186L55.7407 59.1049C55.4927 58.7955 55.265 58.4704 55.0589 58.1317C54.6436 57.4383 54.3009 56.704 54.0362 55.9403C53.7696 55.1573 53.5587 54.3565 53.405 53.5438C53.3752 54.3858 53.4323 55.2287 53.5754 56.059C53.7223 56.9055 53.9703 57.7313 54.314 58.5186C54.4926 58.9163 54.6976 59.3017 54.9277 59.672L55.014 59.8123C55.043 59.8589 55.0754 59.9032 55.1061 59.9487L55.2941 60.2191C55.4282 60.393 55.5583 60.5714 55.7032 60.7379C55.8481 60.9043 55.9935 61.0691 56.1447 61.2305C56.2958 61.3918 56.4572 61.5429 56.6231 61.6884C56.9498 61.9852 57.2961 62.2598 57.6594 62.5105C58.0213 62.7611 58.398 62.9923 58.7775 63.2043C59.1571 63.4162 59.5531 63.602 59.9474 63.7804C60.3417 63.9588 60.7383 64.1213 61.1326 64.2684C61.1803 64.2872 61.2349 64.3071 61.2888 64.3252L61.4508 64.3821C61.5587 64.4201 61.6678 64.4519 61.7763 64.4866C61.8848 64.5213 61.9956 64.548 62.1053 64.5786C62.2149 64.6093 62.3263 64.6321 62.4365 64.6582C62.8817 64.7563 63.3338 64.8196 63.7888 64.8474C64.2518 64.8773 64.7166 64.8672 65.1779 64.8173C65.6585 64.7629 66.1307 64.6503 66.5841 64.4821C67.0704 64.3033 67.5207 64.0389 67.9136 63.7014C68.3219 63.3431 68.6428 62.8961 68.8517 62.3946C69.0488 61.914 69.155 61.401 69.1647 60.8816C69.1703 60.6373 69.1606 60.3929 69.1358 60.1498L69.0875 59.797C69.0801 59.7367 69.0687 59.6833 69.0579 59.6265L69.0261 59.4618C68.9875 59.2407 68.9295 59.0254 68.8795 58.8078C68.8505 58.7004 68.8227 58.5936 68.7886 58.4868L68.742 58.3266L68.6897 58.1686C68.5568 57.7453 68.3909 57.3357 68.2187 56.9317C68.1267 56.7323 68.0409 56.53 67.9386 56.3368C67.8886 56.2397 67.8403 56.1414 67.7892 56.0448L67.6324 55.7607C67.2109 55.0046 66.7306 54.2827 66.1961 53.6017C66.066 53.4313 65.9279 53.2659 65.7927 53.1C65.6574 52.9341 65.5143 52.7739 65.3711 52.6154C65.2279 52.4568 65.087 52.2972 64.9376 52.1438L64.7166 51.9131L64.4893 51.6859C63.8869 51.0891 63.2512 50.5268 62.5854 50.0018C61.9241 49.4803 61.2365 48.9932 60.5252 48.5422C59.8187 48.0951 59.0879 47.6876 58.3361 47.3218Z"
        fill="#001B2D" />
    <path
        d="M23.9986 22.9207C23.7809 22.5974 23.5143 22.3099 23.2083 22.0684C22.9082 21.8305 22.5791 21.6318 22.2288 21.477C21.2111 21.0387 20.0825 20.9271 18.9988 21.1577C18.6435 21.2326 18.2974 21.3456 17.9664 21.4946C17.6316 21.6448 17.3157 21.8342 17.0255 22.0588C16.7304 22.2847 16.4701 22.5527 16.2528 22.8542C16.0812 23.0981 15.9902 23.3895 15.9925 23.6877C15.9949 23.9859 16.0904 24.2758 16.2658 24.517C16.4412 24.7581 16.6876 24.9384 16.9706 25.0325C17.2535 25.1265 17.5588 25.1298 17.8437 25.0416L18.1903 24.932C18.3607 24.8786 18.517 24.8246 18.676 24.778C18.8351 24.7314 18.9931 24.6911 19.1539 24.6553C19.3147 24.6195 19.4766 24.5922 19.6402 24.5695C19.8038 24.5468 19.9675 24.5331 20.1311 24.5269C20.4472 24.5162 20.7636 24.5407 21.0743 24.6002C21.2199 24.6285 21.3639 24.6649 21.5055 24.7093C21.6458 24.753 21.7811 24.8053 21.9265 24.8649L22.2845 25.011C22.6316 25.153 23.0209 25.1513 23.3667 25.0063C23.7126 24.8612 23.9867 24.5848 24.1287 24.2377C24.2148 24.0239 24.2479 23.7925 24.2253 23.5632C24.2026 23.3339 24.1248 23.1135 23.9986 22.9207Z"
        fill="#001B2D" />
    <path
        d="M42.2252 25.5958C42.5608 25.478 42.9115 25.4092 43.2667 25.3913C43.6764 25.3708 44.087 25.4037 44.4882 25.489C44.8925 25.573 45.2842 25.709 45.6536 25.8936C45.9998 26.067 46.3204 26.2875 46.6064 26.5487L46.712 26.6447C46.9635 26.8801 47.2919 27.0161 47.6362 27.0275C47.9805 27.0388 48.3171 26.9246 48.5835 26.7062C48.8499 26.4878 49.0278 26.18 49.0841 25.8402C49.1405 25.5004 49.0714 25.1516 48.8898 24.8589C48.6829 24.5201 48.4348 24.2083 48.1512 23.9306C47.874 23.659 47.5694 23.417 47.2421 23.2084C46.6015 22.8046 45.8941 22.5182 45.153 22.3624C44.4097 22.2022 43.6435 22.1786 42.8917 22.2925C42.4987 22.3533 42.1137 22.4579 41.744 22.6045C41.3529 22.7592 40.9862 22.9697 40.6554 23.2294C40.3925 23.4384 40.2123 23.7339 40.147 24.0633C40.0817 24.3928 40.1356 24.7347 40.2989 25.0281C40.4623 25.3215 40.7246 25.5474 41.039 25.6654C41.3534 25.7835 41.6995 25.786 42.0156 25.6725L42.2252 25.5958Z"
        fill="#001B2D" />
    <path
        d="M39.5502 78.0651C43.4097 76.6765 47.0653 78.7219 46.4221 82.4201H42.7347C42.7307 82.3559 42.7245 82.2928 42.7171 82.2297C42.7002 82.0939 42.6762 81.959 42.645 81.8258C42.5842 81.5606 42.4887 81.3046 42.3609 81.0644C42.235 80.8271 42.0694 80.6133 41.8711 80.4321C41.6776 80.258 41.4546 80.1199 41.2126 80.0241C41.6294 80.2947 41.9345 80.7067 42.0717 81.1843C42.1391 81.4131 42.1756 81.6498 42.1802 81.8883C42.1835 82.0063 42.1803 82.1245 42.1705 82.2422C42.1649 82.299 42.1592 82.3559 42.1501 82.4161H38.2945C38.2854 82.3752 38.2763 82.3337 38.2684 82.2928C38.2496 82.1973 38.2337 82.1008 38.2207 82.0042C38.1938 81.8107 38.1816 81.6154 38.1843 81.4201C38.1856 81.2246 38.2125 81.0302 38.2644 80.8417C38.3164 80.6489 38.4172 80.4728 38.557 80.3303C38.376 80.4408 38.2261 80.5957 38.1218 80.7803C38.014 80.9666 37.9311 81.1662 37.8752 81.3741C37.818 81.5814 37.7768 81.7928 37.7519 82.0064C37.7388 82.1132 37.7292 82.2201 37.7224 82.328C37.7224 82.3581 37.7224 82.3882 37.7184 82.4184H34.0963C33.2026 80.5497 35.3048 76.6288 39.5502 78.0651Z"
        fill="#FF8D29" />
    <path
        d="M42.1708 82.2442C42.1805 82.1265 42.1838 82.0083 42.1804 81.8903C42.176 81.6513 42.1395 81.4139 42.0719 81.1846C41.935 80.7072 41.6304 80.2952 41.214 80.0244C41.456 80.1202 41.679 80.2583 41.8725 80.4324C42.0707 80.6136 42.2364 80.8275 42.3622 81.0647C42.49 81.3049 42.5856 81.5609 42.6463 81.8261C42.6775 81.9593 42.7016 82.0942 42.7185 82.23C42.7259 82.2931 42.7321 82.3562 42.7361 82.4204H42.1514C42.1594 82.3607 42.1651 82.3028 42.1708 82.2442Z"
        fill="#001B2D" />
    <path
        d="M37.7518 82.0081C37.7767 81.7945 37.8179 81.5831 37.8751 81.3757C37.931 81.1679 38.0139 80.9683 38.1217 80.782C38.226 80.5974 38.3758 80.4425 38.5569 80.332C38.4171 80.4745 38.3163 80.6506 38.2643 80.8434C38.2124 81.0318 38.1854 81.2263 38.1842 81.4218C38.1815 81.6171 38.1937 81.8123 38.2205 82.0058C38.2336 82.1024 38.2495 82.199 38.2683 82.2945C38.2762 82.3354 38.2853 82.3769 38.2944 82.4178H37.7183C37.7183 82.3876 37.7183 82.3575 37.7223 82.3274C37.7291 82.2217 37.7387 82.1149 37.7518 82.0081Z"
        fill="#001B2D" />
    <path
        d="M23.8676 78.0651C28.1106 76.6288 30.2134 80.5497 29.322 82.4201H25.6999C25.6999 82.3899 25.6999 82.3598 25.6959 82.3297C25.6891 82.2218 25.6795 82.115 25.6664 82.0081C25.6412 81.7946 25.6 81.5832 25.5431 81.3758C25.4872 81.1679 25.4043 80.9683 25.2965 80.782C25.1922 80.5974 25.0423 80.4425 24.8613 80.3321C25.001 80.4746 25.1015 80.6507 25.1533 80.8434C25.2057 81.0318 25.2328 81.2263 25.234 81.4218C25.2367 81.6171 25.2245 81.8124 25.1977 82.0059C25.1846 82.1025 25.1687 82.199 25.1499 82.2945C25.142 82.3354 25.1329 82.3769 25.1232 82.4178H21.2682C21.2597 82.361 21.2535 82.3042 21.2483 82.2439C21.2387 82.1262 21.2352 82.0081 21.2381 81.89C21.2433 81.6516 21.2798 81.4149 21.3466 81.186C21.4843 80.7079 21.7897 80.2954 22.2068 80.0241C21.965 80.1199 21.7422 80.258 21.5489 80.4321C21.3505 80.6131 21.1848 80.827 21.0591 81.0644C20.9313 81.3046 20.8358 81.5606 20.7751 81.8258C20.7436 81.959 20.7195 82.0938 20.7029 82.2297C20.6955 82.2928 20.6893 82.3559 20.6853 82.4201H16.9979C16.3525 78.7219 20.008 76.6765 23.8676 78.0651Z"
        fill="#FF8D29" />
    <path
        d="M20.7728 81.8261C20.8336 81.5609 20.9291 81.3049 21.0569 81.0647C21.1826 80.8273 21.3482 80.6134 21.5467 80.4324C21.74 80.2583 21.9628 80.1202 22.2046 80.0244C21.7882 80.2954 21.4833 80.7073 21.3455 81.1846C21.2787 81.4135 21.2422 81.6502 21.237 81.8886C21.2341 82.0067 21.2376 82.1248 21.2472 82.2425C21.2523 82.2993 21.2586 82.3562 21.2671 82.4164H20.6825C20.6865 82.3522 20.6927 82.2891 20.7001 82.2261C20.717 82.0915 20.7413 81.958 20.7728 81.8261Z"
        fill="#001B2D" />
    <path
        d="M25.1974 82.0083C25.2243 81.8148 25.2365 81.6195 25.2338 81.4242C25.2326 81.2287 25.2055 81.0342 25.1531 80.8458C25.1013 80.6531 25.0008 80.477 24.8611 80.3345C25.0421 80.4449 25.192 80.5998 25.2963 80.7845C25.4041 80.9707 25.487 81.1703 25.5429 81.3782C25.5998 81.5856 25.641 81.797 25.6662 82.0106C25.6793 82.1174 25.6889 82.2242 25.6957 82.3321C25.6957 82.3622 25.6957 82.3924 25.6997 82.4225H25.123C25.1327 82.3816 25.1418 82.3401 25.1497 82.2992C25.1685 82.2015 25.1844 82.1049 25.1974 82.0083Z"
        fill="#001B2D" />
    <path
        d="M23.7256 52.0193C23.7826 52.0193 23.8395 52.0159 23.896 52.009C26.188 51.7363 27.926 49.6625 28.9811 47.9705C30.1299 46.1245 30.9867 43.8559 31.1123 42.3218C31.1224 42.2003 31.1063 42.078 31.0649 41.9633C31.0235 41.8486 30.9579 41.7441 30.8725 41.6571C29.7254 40.4821 28.1453 39.835 26.4295 39.835C24.8665 39.835 23.4455 40.3599 22.975 41.1111C22.3449 42.1173 21.8864 44.0087 21.7489 46.1677C21.683 47.2086 21.6086 49.7733 22.3472 51.1068C22.7893 51.9051 23.4 52.0244 23.725 52.0244L23.7256 52.0193Z"
        fill="#00152C" />
    <path
        d="M26.4294 40.6844C25.0778 40.6844 23.9579 41.1446 23.6977 41.5605C22.2813 43.8218 22.0779 51.167 23.725 51.167C23.7478 51.1671 23.7705 51.1658 23.7931 51.1631C27.2771 50.7483 30.0526 44.8337 30.2628 42.2497C29.1157 41.0747 27.6748 40.6844 26.4294 40.6844ZM26.4294 38.9799C28.3794 38.9799 30.1736 39.7185 31.4827 41.0588C31.6529 41.2332 31.7837 41.4421 31.8663 41.6713C31.9489 41.9006 31.9814 42.1449 31.9616 42.3877C31.8247 44.0712 30.939 46.4399 29.7021 48.4217C28.9856 49.5699 28.1981 50.5205 27.3607 51.2466C26.2891 52.1761 25.1562 52.7176 23.9948 52.8556C23.9053 52.8663 23.8152 52.8716 23.725 52.8715C22.8528 52.8715 22.0773 52.3767 21.6012 51.5136C20.7841 50.0364 20.8103 47.4933 20.8983 46.1081C20.9688 45.007 21.2392 42.2713 22.2529 40.6537C22.6034 40.0935 23.2233 39.6566 24.096 39.3537C24.8478 39.1008 25.6362 38.9738 26.4294 38.9776V38.9799Z"
        fill="#001B2D" />
    <mask id="mask0_303_703" style="mask-type:luminance" maskUnits="userSpaceOnUse" x="23" y="44"
        width="10" height="9">
        <path
            d="M27.7847 52.3308C25.4149 52.3308 23.4939 50.6535 23.4939 48.5844C23.4939 46.5152 25.4149 44.8379 27.7847 44.8379C30.1544 44.8379 32.0754 46.5152 32.0754 48.5844C32.0754 50.6535 30.1544 52.3308 27.7847 52.3308Z"
            fill="white" />
    </mask>
    <g mask="url(#mask0_303_703)">
        <path
            d="M30.2629 42.25C30.0527 44.834 27.2772 50.7486 23.7932 51.1634C22.0728 51.3679 22.262 43.8528 23.6978 41.5614C24.1978 40.7626 27.8704 39.7995 30.2629 42.25Z"
            fill="#E84139" />
    </g>
    <path
        d="M25.9687 44.3934C27.5686 44.3934 29.1601 43.9292 30.6987 43.0139C30.8528 42.9224 30.9743 42.7847 31.0457 42.6203C31.1171 42.4558 31.1348 42.2731 31.0964 42.098C30.8447 40.9554 30.1873 39.7412 29.3385 38.8492C28.1851 37.6379 26.7073 36.9976 25.0647 36.9976C24.7268 36.9983 24.3893 37.0239 24.0551 37.0743C20.512 37.6027 18.1593 38.6651 18.061 38.7117C17.945 38.7648 17.8424 38.8432 17.7607 38.9412C17.6791 39.0392 17.6205 39.1543 17.5892 39.278C17.558 39.4016 17.5549 39.5307 17.5802 39.6557C17.6055 39.7808 17.6585 39.8985 17.7354 40.0003C17.8729 40.1798 21.1097 44.3934 25.9687 44.3934Z"
        fill="#FFA021" />
    <path
        d="M25.0637 37.849C24.7687 37.8496 24.4741 37.8722 24.1825 37.9166C20.7167 38.4331 18.4173 39.4859 18.4173 39.4859C18.4173 39.4859 21.478 43.5403 25.9688 43.5403C27.2904 43.5403 28.7358 43.1892 30.263 42.2807C29.8937 40.6041 28.2511 37.849 25.0637 37.849ZM25.0637 36.1445C26.9455 36.1445 28.6363 36.8763 29.9545 38.2609C30.9204 39.2751 31.6397 40.6069 31.9277 41.9142C32.0045 42.2643 31.969 42.6297 31.8262 42.9585C31.6834 43.2872 31.4406 43.5626 31.1323 43.7454C29.4602 44.7403 27.7233 45.2448 25.9665 45.2448C20.6877 45.2448 17.2009 40.7063 17.0549 40.5131C16.9011 40.3096 16.795 40.0741 16.7444 39.824C16.6938 39.574 16.7 39.3158 16.7625 39.0684C16.825 38.8211 16.9422 38.5909 17.1055 38.3949C17.2688 38.1989 17.474 38.0421 17.706 37.936C17.8088 37.8888 20.2678 36.7769 23.9285 36.2315C24.3035 36.1751 24.6822 36.1464 25.0614 36.1457L25.0637 36.1445Z"
        fill="#001B2D" />
    <path
        d="M41.9603 77.6282C41.1377 77.6339 40.3223 77.7817 39.5501 78.0651C38.9854 77.8665 38.3919 77.7619 37.7933 77.7554C34.7451 77.7554 33.3378 80.8292 34.0963 82.4201H46.4221C46.9272 79.5133 44.7778 77.6276 41.9603 77.6282ZM41.9603 75.9237C43.9863 75.9237 45.8028 76.7015 46.9442 78.0588C47.9947 79.3088 48.4055 80.9604 48.101 82.7121C48.0322 83.1075 47.8261 83.466 47.519 83.7244C47.2119 83.9827 46.8234 84.1245 46.4221 84.1245H34.0963C33.7743 84.1245 33.4589 84.0333 33.1866 83.8615C32.9143 83.6897 32.6963 83.4442 32.5577 83.1536C31.9293 81.8354 32.1106 80.1099 33.0321 78.6497C33.5362 77.8446 34.239 77.1826 35.0728 76.7275C35.9066 76.2724 36.8435 76.0394 37.7933 76.0509C38.3786 76.0532 38.9613 76.1296 39.5274 76.2782C40.3173 76.0442 41.1365 75.924 41.9603 75.9214V75.9237Z"
        fill="#001B2D" />
    <path
        d="M21.4576 77.6278C18.6406 77.6278 16.4907 79.5136 16.9958 82.4197H29.3216C30.0801 80.8289 28.6727 77.7551 25.6245 77.7551C25.0259 77.7616 24.4325 77.8662 23.8678 78.0647C23.0955 77.7814 22.2802 77.6336 21.4576 77.6278ZM21.4576 75.9233C22.2814 75.926 23.1006 76.0462 23.8905 76.2801C24.4566 76.1315 25.0392 76.0551 25.6245 76.0529C26.5744 76.041 27.5113 76.2738 28.3452 76.7289C29.179 77.1839 29.8817 77.8459 30.3857 78.6511C31.3073 80.1113 31.4886 81.8374 30.8596 83.1555C30.7211 83.4461 30.5031 83.6915 30.2309 83.8633C29.9587 84.0351 29.6435 84.1264 29.3216 84.1265H16.9958C16.5943 84.1266 16.2058 83.9849 15.8985 83.7265C15.5913 83.4681 15.3851 83.1096 15.3163 82.714C15.0118 80.9624 15.4231 79.3102 16.4737 78.0608C17.6151 76.704 19.4315 75.9256 21.4576 75.9256V75.9233Z"
        fill="#001B2D" />
    <path
        d="M34.5056 15.6306C31.3534 9.20693 40.4026 -1.13026 44.8462 1.64749C48.3535 3.84232 45.5428 8.72626 43.9371 11.2069C42.5298 13.3812 40.4111 15.28 38.5725 16.2959"
        fill="#FE9132" />
    <path
        d="M34.5056 15.6303C34.2402 14.8731 34.107 14.0759 34.1118 13.2736C34.1215 12.4902 34.2362 11.7117 34.4527 10.9589C34.6641 10.208 34.9474 9.47923 35.2987 8.78279C35.648 8.08686 36.0499 7.41864 36.501 6.78398C36.7263 6.46505 36.9623 6.15616 37.2089 5.85731C37.4549 5.55788 37.7112 5.26755 37.9782 4.98915C38.5044 4.43394 39.0771 3.92472 39.6901 3.46704C39.9912 3.2447 40.3035 3.03799 40.6258 2.84774C40.9392 2.66369 41.266 2.50376 41.6036 2.36934C41.9236 2.23988 42.256 2.14354 42.5957 2.08185C42.9076 2.02547 43.2265 2.01895 43.5405 2.06253C43.5778 2.06643 43.6148 2.07269 43.6513 2.08128L43.7604 2.10231L43.8661 2.13185C43.9015 2.14043 43.9362 2.15144 43.9701 2.1648L44.0729 2.2023C44.107 2.2148 44.1382 2.23242 44.1718 2.24662C44.238 2.27671 44.3025 2.31047 44.3649 2.34775C44.3992 2.36685 44.4322 2.3881 44.4638 2.41139L44.5661 2.48014C44.599 2.504 44.6359 2.52388 44.6661 2.55002L44.757 2.62559L44.849 2.70001C44.8797 2.72501 44.9058 2.75683 44.932 2.78126C44.9874 2.83368 45.0398 2.88926 45.0888 2.94773C45.2897 3.17336 45.4453 3.4355 45.5473 3.71987C45.6522 4.02355 45.7106 4.34133 45.7206 4.66246C45.7316 5.01277 45.7065 5.36329 45.6456 5.70845C45.5809 6.07319 45.4941 6.43368 45.3859 6.78796C45.2757 7.14931 45.1399 7.50896 44.9939 7.86747C44.8479 8.22599 44.6888 8.58279 44.5155 8.93562C44.3422 9.28845 44.1621 9.64015 43.9723 9.98957C43.878 10.1638 43.7814 10.3379 43.6826 10.5117L43.5343 10.7719L43.4598 10.9026L43.3848 11.0282L43.2354 11.2799C43.1837 11.3628 43.1297 11.4446 43.0775 11.527C42.9741 11.6935 42.8587 11.8526 42.7496 12.0168C42.6957 12.0992 42.636 12.177 42.5792 12.2577L42.4048 12.4969C42.2826 12.6526 42.1656 12.8122 42.0394 12.965L41.8525 13.1969C41.7894 13.2741 41.7235 13.348 41.6593 13.4241C41.5321 13.5775 41.3963 13.723 41.2616 13.8724C41.1957 13.948 41.1264 14.0196 41.0582 14.0923C40.99 14.165 40.9213 14.2383 40.852 14.3099L40.64 14.523C40.5707 14.5957 40.4991 14.665 40.4264 14.7343L40.2088 14.9428L39.9867 15.1462C39.9134 15.2155 39.8372 15.282 39.7594 15.3474L39.5321 15.5457C39.2236 15.8064 38.9032 16.0536 38.5731 16.2956C38.9517 16.137 39.3212 15.9574 39.6798 15.7576C40.0361 15.553 40.3906 15.34 40.7281 15.1025C41.4114 14.6313 42.0557 14.1059 42.6548 13.5315C43.2619 12.9523 43.8181 12.322 44.3172 11.6475L44.4127 11.5202L44.503 11.3952C44.5632 11.3117 44.6223 11.2248 44.6814 11.1424C44.799 10.9719 44.9161 10.8015 45.0303 10.631C45.2604 10.285 45.4848 9.93389 45.6956 9.5714C45.9064 9.20891 46.1081 8.83847 46.2967 8.4578C46.4853 8.07713 46.6558 7.68396 46.808 7.27658C46.9626 6.8627 47.0868 6.4381 47.1796 6.00617C47.279 5.55543 47.3314 5.09559 47.3359 4.63405C47.3387 4.14183 47.2619 3.6524 47.1086 3.18466C46.9489 2.69901 46.6983 2.24819 46.37 1.85629L46.3098 1.78186C46.2899 1.75686 46.2666 1.73584 46.245 1.71311L46.1126 1.57846C46.0683 1.53471 46.0251 1.48698 45.978 1.44664L45.8365 1.32733L45.6933 1.20858C45.6456 1.16824 45.5944 1.13699 45.545 1.1012L45.3956 0.997793C45.345 0.961297 45.2927 0.927354 45.2388 0.896092C44.794 0.626236 44.2993 0.449202 43.7843 0.375653C43.293 0.310325 42.7945 0.322788 42.307 0.412583C41.8479 0.497146 41.3994 0.631654 40.9696 0.813708C40.5566 0.989238 40.1577 1.19628 39.7764 1.43301C39.4037 1.66227 39.046 1.91505 38.7054 2.1898C38.3668 2.46139 38.0449 2.74736 37.7396 3.04773C37.4316 3.34659 37.1436 3.66249 36.8669 3.98634C36.5902 4.31019 36.3231 4.64371 36.0777 4.99313C35.8322 5.34255 35.5999 5.69424 35.3811 6.05673C35.1624 6.41922 34.9646 6.79535 34.7783 7.17431C34.5914 7.55385 34.4237 7.94259 34.276 8.33905C34.1289 8.73677 33.9959 9.13789 33.8885 9.54754C33.7809 9.95595 33.697 10.3703 33.6374 10.7884C33.5778 11.2072 33.5465 11.6296 33.5437 12.0526C33.5421 12.4743 33.5752 12.8954 33.6425 13.3116C33.7689 14.1353 34.0626 14.9244 34.5056 15.6303Z"
        fill="#001B2D" />
</svg>
    