<svg width="42" height="52" viewBox="0 0 42 52" fill="none" xmlns="http://www.w3.org/2000/svg">
    <g filter="url(#filter0_d_152_1368)">
        <path
            d="M33.8914 19.6813V16.3538C33.8914 9.17586 28.0515 3.33301 20.8706 3.33301C13.6898 3.33301 7.85275 9.17586 7.85275 16.3538V19.6813C6.30439 20.584 5.24976 22.2463 5.24976 24.1657V39.7895C5.24976 42.6613 7.5869 44.9984 10.4587 44.9984H31.2914C34.1631 44.9984 36.5003 42.6613 36.5003 39.7895V24.1657C36.4974 22.2463 35.4427 20.584 33.8914 19.6813ZM20.8736 8.54191C25.1827 8.54191 28.6855 12.0447 28.6855 16.3538V18.9568H13.0617V16.3538C13.0617 12.0447 16.5644 8.54191 20.8736 8.54191ZM23.4765 33.5669V37.1836H18.2676V33.5669C17.473 32.8511 16.9647 31.8257 16.9647 30.6747C16.9647 28.5186 18.7146 26.7687 20.8706 26.7687C23.0266 26.7687 24.7766 28.5186 24.7766 30.6747C24.7795 31.8286 24.2712 32.854 23.4765 33.5669Z"
            fill="#E78809" />
        <path
            d="M32.7518 18.3113V15.2731C32.7518 8.72322 27.4231 3.39453 20.8733 3.39453C14.3234 3.39453 8.99475 8.72322 8.99475 15.2731V18.3084C7.58078 19.1323 6.61963 20.6485 6.61963 22.3984V36.6521C6.61963 39.2726 8.74935 41.4023 11.3699 41.4023H30.3767C32.9972 41.4023 35.1269 39.2726 35.1269 36.6521V22.4013C35.1269 20.6485 34.1629 19.1352 32.7518 18.3113ZM20.8733 8.1477C24.8026 8.1477 28.0016 11.3437 28.0016 15.276V17.6511H13.745V15.276C13.745 11.3437 16.941 8.1477 20.8733 8.1477ZM23.2484 30.9787V34.2799H18.4952V30.9787C17.7707 30.3272 17.3062 29.3923 17.3062 28.3406C17.3062 26.3716 18.9013 24.7765 20.8704 24.7765C22.8394 24.7765 24.4345 26.3716 24.4345 28.3406C24.4345 29.3923 23.9729 30.3272 23.2484 30.9787Z"
            fill="#ECECEC" />
        <path
            d="M35.7527 42.4285C34.7127 41.4147 33.5003 40.5178 32.7145 39.9482C29.9216 37.9149 26.7197 36.9128 23.4769 36.6411V37.1845H18.268V36.8193C15.1917 37.2955 12.2498 38.3648 9.77832 39.8547C8.6302 40.5471 7.16364 41.4381 5.97754 42.4022C6.88318 43.9476 8.54255 44.9993 10.459 44.9993H31.2917C33.1936 44.9993 34.8442 43.9593 35.7527 42.4285Z"
            fill="#DB6604" />
        <path
            d="M32.7518 18.3113V15.2731C32.7518 8.72322 27.4231 3.39453 20.8733 3.39453C14.3234 3.39453 8.99475 8.72322 8.99475 15.2731V18.3084C7.58078 19.1323 6.61963 20.6485 6.61963 22.3984V36.6521C6.61963 39.2726 8.74935 41.4023 11.3699 41.4023H30.3767C32.9972 41.4023 35.1269 39.2726 35.1269 36.6521V22.4013C35.1269 20.6485 34.1629 19.1352 32.7518 18.3113ZM20.8733 8.1477C24.8026 8.1477 28.0016 11.3437 28.0016 15.276V17.6511H13.745V15.276C13.745 11.3437 16.941 8.1477 20.8733 8.1477ZM23.2484 30.9787V34.2799H18.4952V30.9787C17.7707 30.3272 17.3062 29.3923 17.3062 28.3406C17.3062 26.3716 18.9013 24.7765 20.8704 24.7765C22.8394 24.7765 24.4345 26.3716 24.4345 28.3406C24.4345 29.3923 23.9729 30.3272 23.2484 30.9787Z"
            fill="#FFEF09" />
        <path
            d="M11.3696 39.9452C9.5554 39.9452 8.08008 38.4699 8.08008 36.6557V22.3991C8.08008 21.2452 8.71111 20.1642 9.72776 19.5741C10.1777 19.3112 10.4552 18.8291 10.4552 18.3091V15.2708C10.4552 9.52732 15.1295 4.85596 20.873 4.85596C26.6165 4.85596 31.2908 9.53024 31.2908 15.2708V18.3091C31.2908 18.8291 31.5684 19.3112 32.0183 19.5741C33.0349 20.1642 33.666 21.2452 33.666 22.3991V36.6557C33.666 38.4699 32.1906 39.9452 30.3764 39.9452H11.3696ZM17.0343 34.2806C17.0343 35.0869 17.6887 35.7413 18.495 35.7413H23.2452C24.0515 35.7413 24.7059 35.0869 24.7059 34.2806V31.5666C25.4684 30.6639 25.895 29.5216 25.895 28.3413C25.895 25.5718 23.6425 23.3165 20.8701 23.3165C18.0977 23.3165 15.8452 25.5689 15.8452 28.3413C15.8452 29.5216 16.2718 30.6668 17.0343 31.5666V34.2806ZM20.873 6.68769C16.1374 6.68769 12.284 10.5381 12.284 15.2738V17.6489C12.284 18.4552 12.9384 19.1096 13.7447 19.1096H27.9984C28.8047 19.1096 29.4591 18.4552 29.4591 17.6489V15.2738C29.4591 10.5381 25.6057 6.68769 20.873 6.68769Z"
            fill="#FFDA09" />
        <mask id="mask0_152_1368" style="mask-type:luminance" maskUnits="userSpaceOnUse" x="8" y="4"
            width="26" height="36">
            <path
                d="M11.3696 39.9452C9.5554 39.9452 8.08008 38.4699 8.08008 36.6557V22.3991C8.08008 21.2452 8.71111 20.1642 9.72776 19.5741C10.1777 19.3112 10.4552 18.8291 10.4552 18.3091V15.2708C10.4552 9.52732 15.1295 4.85596 20.873 4.85596C26.6165 4.85596 31.2908 9.53024 31.2908 15.2708V18.3091C31.2908 18.8291 31.5684 19.3112 32.0183 19.5741C33.0349 20.1642 33.666 21.2452 33.666 22.3991V36.6557C33.666 38.4699 32.1906 39.9452 30.3764 39.9452H11.3696ZM17.0343 34.2806C17.0343 35.0869 17.6887 35.7413 18.495 35.7413H23.2452C24.0515 35.7413 24.7059 35.0869 24.7059 34.2806V31.5666C25.4684 30.6639 25.895 29.5216 25.895 28.3413C25.895 25.5718 23.6425 23.3165 20.8701 23.3165C18.0977 23.3165 15.8452 25.5689 15.8452 28.3413C15.8452 29.5216 16.2718 30.6668 17.0343 31.5666V34.2806ZM20.873 6.68769C16.1374 6.68769 12.284 10.5381 12.284 15.2738V17.6489C12.284 18.4552 12.9384 19.1096 13.7447 19.1096H27.9984C28.8047 19.1096 29.4591 18.4552 29.4591 17.6489V15.2738C29.4591 10.5381 25.6057 6.68769 20.873 6.68769Z"
                fill="white" />
        </mask>
        <g mask="url(#mask0_152_1368)">
            <g style="mix-blend-mode:screen" opacity="0.33">
                <path
                    d="M35.6386 29.3804C32.2819 34.6565 28.0809 39.4681 22.8281 41.3056L32.2234 46.2458C35.0572 47.7386 38.373 45.3285 37.8297 42.1704L35.6386 29.3804Z"
                    fill="#FFEF09" />
            </g>
            <g style="mix-blend-mode:screen" opacity="0.33">
                <path
                    d="M5.86066 41.7388C7.6515 38.645 10.2896 36.0712 12.9656 33.7019C16.9972 30.1407 21.0316 26.5561 25.1655 23.1147C30.5321 18.6478 36.1208 14.4555 41.9315 10.6022L32.7407 9.26416C32.2996 9.81047 31.8526 10.3509 31.4144 10.8943C28.531 14.4585 25.481 17.8386 22.1447 20.9879C16.6992 26.1266 10.8505 30.9499 4.41748 34.8062L3.77184 38.5661C3.50599 40.1174 4.53434 41.4145 5.86066 41.7388Z"
                    fill="#FFEF09" />
            </g>
            <g style="mix-blend-mode:screen" opacity="0.33">
                <path
                    d="M10.6573 14.8726C15.1943 10.1954 19.8219 5.34585 24.8233 1.04843L24.4114 0.21582C20.5288 4.02536 16.6317 7.82322 12.4511 11.3056C8.76132 14.3847 4.46975 18.1125 -0.187012 18.8604L3.85625 22.8014C5.91001 19.991 8.24131 17.3646 10.6573 14.8726Z"
                    fill="#FFEF09" />
            </g>
        </g>
    </g>
    <defs>
        <filter id="filter0_d_152_1368" x="0.249756" y="0.333008" width="41.2505" height="51.6665"
            filterUnits="userSpaceOnUse" color-interpolation-filters="sRGB">
            <feFlood flood-opacity="0" result="BackgroundImageFix" />
            <feColorMatrix in="SourceAlpha" type="matrix"
                values="0 0 0 0 0 0 0 0 0 0 0 0 0 0 0 0 0 0 127 0" result="hardAlpha" />
            <feOffset dy="2" />
            <feGaussianBlur stdDeviation="2.5" />
            <feComposite in2="hardAlpha" operator="out" />
            <feColorMatrix type="matrix" values="0 0 0 0 0 0 0 0 0 0 0 0 0 0 0 0 0 0 0.18 0" />
            <feBlend mode="normal" in2="BackgroundImageFix" result="effect1_dropShadow_152_1368" />
            <feBlend mode="normal" in="SourceGraphic" in2="effect1_dropShadow_152_1368"
                result="shape" />
        </filter>
    </defs>
</svg>
    