<svg viewBox="0 0 155 41" fill="none" xmlns="http://www.w3.org/2000/svg">
    <g filter="url(#filter0_d_567_370)">
        <path
            d="M0.296753 12.4521C0.296753 5.82473 5.66934 0.452148 12.2968 0.452148H142.787C150.637 0.452148 156.374 7.8661 154.402 15.4652L150.771 29.4652C149.398 34.757 144.622 38.4521 139.155 38.4521H12.2967C5.66932 38.4521 0.296753 33.0796 0.296753 26.4521V12.4521Z"
            fill="#8F32D6" />
        <path
            d="M1.29675 12.4521C1.29675 6.37702 6.22162 1.45215 12.2968 1.45215H142.787C149.983 1.45215 155.241 8.24827 153.434 15.2141L149.803 29.2141C148.545 34.065 144.167 37.4521 139.155 37.4521H12.2967C6.2216 37.4521 1.29675 32.5273 1.29675 26.4521V12.4521Z"
            stroke="#60129B" stroke-width="2" />
    </g>
    <defs>
        <filter id="filter0_d_567_370" x="0.296753" y="0.452148"
            filterUnits="userSpaceOnUse" color-interpolation-filters="sRGB">
            <feFlood flood-opacity="0" result="BackgroundImageFix" />
            <feColorMatrix in="SourceAlpha" type="matrix"
                values="0 0 0 0 0 0 0 0 0 0 0 0 0 0 0 0 0 0 127 0" result="hardAlpha" />
            <feOffset dy="2" />
            <feComposite in2="hardAlpha" operator="out" />
            <feColorMatrix type="matrix"
                values="0 0 0 0 0.278431 0 0 0 0 0.0745098 0 0 0 0 0.435294 0 0 0 1 0" />
            <feBlend mode="normal" in2="BackgroundImageFix" result="effect1_dropShadow_567_370" />
            <feBlend mode="normal" in="SourceGraphic" in2="effect1_dropShadow_567_370"
                result="shape" />
        </filter>
    </defs>
</svg>
    