<svg width="56" height="59" viewBox="0 0 56 59" fill="none" xmlns="http://www.w3.org/2000/svg">
    <g filter="url(#filter0_d_153_2837)">
        <path
            d="M29.0019 39.9187C34.8193 39.2671 39.4815 34.6167 40.145 28.7993C41.0158 21.1929 35.1036 14.7179 27.6927 14.635V11.2228C27.6927 11.0332 27.4557 10.9325 27.2958 11.051L20.2699 16.2108C20.1514 16.2997 20.1514 16.4715 20.2699 16.5603L27.2958 21.7201C27.4557 21.8386 27.6927 21.732 27.6927 21.5483V18.142C32.8999 18.225 37.0704 22.6561 36.715 27.9522C36.4128 32.5078 32.6985 36.2044 28.1429 36.4946C23.3148 36.8027 19.2095 33.3549 18.4749 28.7934C18.3386 27.9463 17.5981 27.3302 16.7451 27.3302C15.6847 27.3302 14.8553 28.2721 15.0212 29.3207C16.052 35.8193 22.053 40.6948 29.0019 39.9187Z"
            fill="white" />
    </g>
    <defs>
        <filter id="filter0_d_153_2837" x="0" y="0" width="55.2302" height="59"
            filterUnits="userSpaceOnUse" color-interpolation-filters="sRGB">
            <feFlood flood-opacity="0" result="BackgroundImageFix" />
            <feColorMatrix in="SourceAlpha" type="matrix"
                values="0 0 0 0 0 0 0 0 0 0 0 0 0 0 0 0 0 0 127 0" result="hardAlpha" />
            <feOffset dy="4" />
            <feGaussianBlur stdDeviation="7.5" />
            <feComposite in2="hardAlpha" operator="out" />
            <feColorMatrix type="matrix" values="0 0 0 0 0 0 0 0 0 0 0 0 0 0 0 0 0 0 0.2 0" />
            <feBlend mode="normal" in2="BackgroundImageFix" result="effect1_dropShadow_153_2837" />
            <feBlend mode="normal" in="SourceGraphic" in2="effect1_dropShadow_153_2837"
                result="shape" />
        </filter>
    </defs>
</svg>
    